<svg xmlns="http://www.w3.org/2000/svg" viewBox="0 0 20.0 20.0" width="20.0" height="20.0"><path d="M10,1.667C6.775,1.667 4.167,4.275 4.167,7.5C4.167,11.875 10,18.334 10,18.334C10,18.334 15.833,11.875 15.833,7.5C15.833,4.275 13.225,1.667 10,1.667ZM5.833,7.5C5.833,5.2 7.7,3.334 10,3.334C12.3,3.334 14.167,5.2 14.167,7.5C14.167,9.9 11.767,13.492 10,15.734C8.267,13.509 5.833,9.875 5.833,7.5Z" fill="#202124"/><path d="M10,9.584C11.15,9.584 12.083,8.651 12.083,7.5C12.083,6.35 11.15,5.417 10,5.417C8.849,5.417 7.917,6.35 7.917,7.5C7.917,8.651 8.849,9.584 10,9.584Z" fill="#202124"/></svg>